<svg id="Layer_3" enable-background="new 0 0 64 64" height="512" viewBox="0 0 64 64" width="512" xmlns="http://www.w3.org/2000/svg" xmlns:xlink="http://www.w3.org/1999/xlink"><linearGradient id="SVGID_1_" gradientUnits="userSpaceOnUse" x1="32" x2="32" y1="63" y2="1"><stop offset="0" stop-color="#9f2fff"/><stop offset="1" stop-color="#0bb1d3"/></linearGradient><path d="m53 35.775v-2.775h4.184c.414 1.161 1.514 2 2.816 2 1.654 0 3-1.346 3-3s-1.346-3-3-3c-1.302 0-2.402.839-2.816 2h-4.184v-2.086l2.715-2.715c.391.187.823.301 1.285.301 1.654 0 3-1.346 3-3s-1.346-3-3-3-3 1.346-3 3c0 .462.114.894.301 1.285l-3.002 3.002-1.94-.498c-.4-1.477-.988-2.895-1.755-4.229l1.915-3.239-1.963-1.962 2.691-2.691c.791.523 1.736.832 2.753.832 2.757 0 5-2.243 5-5s-2.243-5-5-5-5 2.243-5 5c0 1.017.309 1.962.833 2.753l-2.691 2.691-1.964-1.963-3.238 1.915c-1.333-.766-2.75-1.354-4.229-1.755l-.936-3.641h-2.775v-4.184c1.161-.414 2-1.514 2-2.816 0-1.654-1.346-3-3-3s-3 1.346-3 3c0 1.302.839 2.402 2 2.816v4.184h-2.775l-.574 2.236-3.951-3.95c.187-.392.3-.824.3-1.286 0-1.654-1.346-3-3-3s-3 1.346-3 3 1.346 3 3 3c.462 0 .894-.113 1.285-.301l4.191 4.19c-1.186.383-2.33.882-3.416 1.506l-3.238-1.915-1.964 1.963-7.691-7.691c.524-.789.833-1.735.833-2.752 0-2.757-2.243-5-5-5s-5 2.243-5 5 2.243 5 5 5c1.017 0 1.962-.309 2.753-.833l7.691 7.691-1.964 1.962 1.915 3.239c-.624 1.087-1.123 2.232-1.506 3.416l-3.19-3.19c.188-.391.301-.823.301-1.285 0-1.654-1.346-3-3-3s-3 1.346-3 3 1.346 3 3 3c.462 0 .894-.114 1.285-.301l2.951 2.951-2.236.575v2.775h-2.184c-.414-1.161-1.514-2-2.816-2-1.654 0-3 1.346-3 3s1.346 3 3 3c1.302 0 2.402-.839 2.816-2h2.184v2.775l3.641.936c.4 1.477.988 2.895 1.755 4.229l-1.916 3.24 1.963 1.962-2.691 2.691c-.79-.524-1.735-.833-2.752-.833-2.757 0-5 2.243-5 5s2.243 5 5 5 5-2.243 5-5c0-1.017-.309-1.963-.833-2.753l2.691-2.691 1.964 1.963 3.238-1.915c1.333.766 2.75 1.354 4.229 1.755l.936 3.641h2.775v2.184c-1.161.414-2 1.514-2 2.816 0 1.654 1.346 3 3 3s3-1.346 3-3c0-1.302-.839-2.402-2-2.816v-2.184h2.775l.936-3.641c.06-.016.119-.038.18-.055l5.41 5.411c-.188.391-.301.823-.301 1.285 0 1.654 1.346 3 3 3s3-1.346 3-3-1.346-3-3-3c-.462 0-.894.113-1.285.301l-4.729-4.73c.669-.283 1.322-.603 1.955-.967l3.238 1.915 1.964-1.963 7.691 7.691c-.525.79-.834 1.736-.834 2.753 0 2.757 2.243 5 5 5s5-2.243 5-5-2.243-5-5-5c-1.017 0-1.962.309-2.753.833l-7.691-7.691 1.963-1.962-1.915-3.239c.767-1.335 1.354-2.753 1.755-4.229zm7-4.775c.552 0 1 .449 1 1s-.448 1-1 1-1-.449-1-1 .448-1 1-1zm-7-23c1.654 0 3 1.346 3 3s-1.346 3-3 3-3-1.346-3-3 1.346-3 3-3zm-21-5c.552 0 1 .449 1 1s-.448 1-1 1-1-.449-1-1 .448-1 1-1zm-29 3c0-1.654 1.346-3 3-3s3 1.346 3 3-1.346 3-3 3-3-1.346-3-3zm3 27c-.552 0-1-.449-1-1s.448-1 1-1 1 .449 1 1-.448 1-1 1zm5 23c-1.654 0-3-1.346-3-3s1.346-3 3-3 3 1.346 3 3-1.346 3-3 3zm21 3c-.552 0-1-.449-1-1s.448-1 1-1 1 .449 1 1-.448 1-1 1zm13-4c.552 0 1 .449 1 1s-.448 1-1 1-1-.449-1-1 .448-1 1-1zm16 3c0 1.654-1.346 3-3 3s-3-1.346-3-3 1.346-3 3-3 3 1.346 3 3zm-4-35.5c.552 0 1 .449 1 1s-.448 1-1 1-1-.449-1-1 .448-1 1-1zm-36-13.5c-.552 0-1-.449-1-1s.448-1 1-1 1 .449 1 1-.448 1-1 1zm-12 14c-.552 0-1-.449-1-1s.448-1 1-1 1 .449 1 1-.448 1-1 1zm38.562 12.662c-.393 1.676-1.056 3.273-1.97 4.749l-.319.515 1.735 2.937-3.146 3.146-2.938-1.736-.515.319c-1.472.914-3.069 1.576-4.748 1.97l-.588.138-.848 3.3h-4.449l-.849-3.3-.589-.138c-1.679-.394-3.276-1.057-4.748-1.97l-.515-.319-2.938 1.736-3.146-3.146 1.735-2.937-.319-.515c-.914-1.476-1.577-3.073-1.97-4.749l-.138-.59-3.299-.847v-4.449l3.301-.848.138-.59c.393-1.676 1.056-3.273 1.97-4.749l.319-.515-1.735-2.937 3.146-3.146 2.938 1.736.515-.319c1.472-.914 3.069-1.576 4.748-1.97l.589-.138.849-3.3h4.449l.849 3.3.589.138c1.679.394 3.276 1.057 4.748 1.97l.515.319 2.938-1.736 3.146 3.146-1.735 2.937.319.515c.914 1.476 1.577 3.073 1.97 4.749l.138.59 3.296.847v4.449l-3.301.848zm-15.562-17.662c-7.72 0-14 6.28-14 14s6.28 14 14 14 14-6.28 14-14-6.28-14-14-14zm0 26c-6.617 0-12-5.383-12-12s5.383-12 12-12 12 5.383 12 12-5.383 12-12 12zm0-20c-4.411 0-8 3.589-8 8s3.589 8 8 8 8-3.589 8-8-3.589-8-8-8zm0 14c-3.309 0-6-2.691-6-6s2.691-6 6-6 6 2.691 6 6-2.691 6-6 6z" fill="url(#SVGID_1_)"/></svg>