<svg id="Capa_1" enable-background="new 0 0 512 512" height="512" viewBox="0 0 512 512" width="512" xmlns="http://www.w3.org/2000/svg" xmlns:xlink="http://www.w3.org/1999/xlink"><linearGradient id="SVGID_1_" gradientUnits="userSpaceOnUse" x1=".001" x2="511.999" y1="256" y2="256"><stop offset="0" stop-color="#00f2fe"/><stop offset=".0208" stop-color="#03effe"/><stop offset=".2931" stop-color="#24d2fe"/><stop offset=".5538" stop-color="#3cbdfe"/><stop offset=".7956" stop-color="#4ab0fe"/><stop offset="1" stop-color="#4facfe"/></linearGradient><path d="m510.703 438.923c-2.251-10.813-12.84-17.75-23.657-15.503-10.814 2.251-17.755 12.843-15.503 23.657 1.761 8.457-1.854 14.488-4.166 17.331-2.306 2.836-7.46 7.593-16.069 7.593h-88.576l40.347-34.868c7.366-6.366 9.078-17.11 4.056-25.45l-27.745-46.071 27.197-34.02c11.833 11.163 22.529 23.715 31.803 37.547 6.152 9.173 18.575 11.625 27.75 5.473 9.174-6.151 11.748-18.659 5.473-27.75-20.612-29.862-44.612-50.862-57.078-61.054-23.207-17.911-49.287-31.745-77.133-40.924 33.126-24.828 54.599-64.395 54.599-108.884 0-74.991-61.009-136-136-136s-136 61.009-136 136c0 44.509 21.492 84.092 54.644 108.918-30.371 9.998-58.871 25.546-83.813 46.062-45.732 37.617-77.529 90.086-89.532 147.743-3.762 18.066.745 36.622 12.363 50.909 11.56 14.215 28.703 22.368 47.031 22.368h142.613c8.354 0 15.829-5.193 18.744-13.023s.655-16.646-5.667-22.109l-68.547-58.973 26.287-43.561c4.328-7.171 3.728-16.28-1.502-22.822l-35.597-44.527c17.314-11.155 36.223-19.936 56.217-25.932l43.537 151.473c2.463 8.571 10.304 14.475 19.222 14.475s16.758-5.904 19.222-14.475l43.556-151.538c19.954 5.941 38.912 14.676 56.327 25.923l-35.656 44.601c-5.226 6.538-5.829 15.637-1.511 22.807l26.237 43.567-68.252 58.983c-6.321 5.463-8.581 14.279-5.667 22.109 2.915 7.83 10.389 13.023 18.744 13.023h142.307c18.38 0 35.549-8.148 47.103-22.355 11.562-14.22 16.043-32.707 12.292-50.723zm-361.432 33.077h-88.577c-8.538 0-13.689-4.766-15.999-7.606-3.989-4.905-5.533-11.29-4.236-17.519 9.444-45.363 32.805-85.154 65.02-115.293l27.196 34.019-27.798 46.065c-5.034 8.341-3.325 19.096 4.046 25.466zm106.73-117.4-23.426-81.503c6.054-.652 12.17-1.059 18.336-1.202 1.69.063 8.275.067 9.858.012 6.265.135 12.487.538 18.655 1.196zm4.763-122.719c-1.586-.029-7.884-.025-9.442.003-50.77-2.449-91.321-44.519-91.321-95.885 0-52.935 43.065-96 96-96s96 43.065 96 96c0 51.338-40.506 93.391-91.237 95.882z" fill="url(#SVGID_1_)"/></svg>